<?xml version="1.0" encoding="utf-8"?>
<svg version="1.1" xmlns:xlink="http://www.w3.org/1999/xlink" width="9px" height="14px" xmlns="http://www.w3.org/2000/svg">
  <g transform="matrix(1 0 0 1 -1286 -790 )">
    <path d="M 8.845360824742267 6.677354709418838  C 8.948453608247425 6.770875083500334  9 6.878423513694054  9 7  C 9 7.121576486305944  8.948453608247425 7.229124916499665  8.845360824742267 7.322645290581162  L 1.6391752577319587 13.859719438877756  C 1.5360824742268042 13.953239812959252  1.4175257731958761 14  1.2835051546391751 14  C 1.1494845360824744 14  1.0309278350515465 13.953239812959252  0.9278350515463917 13.859719438877756  L 0.15463917525773196 13.158316633266534  C 0.05154639175257736 13.064796259185036  0 12.957247828991317  0 12.83567134268537  C 0 12.714094856379425  0.05154639175257736 12.606546426185705  0.15463917525773196 12.513026052104209  L 6.231958762886598 7  L 0.15463917525773196 1.4869739478957915  C 0.05154639175257736 1.3934535738142946  0 1.285905143620574  0 1.1643286573146296  C 0 1.0427521710086822  0.05154639175257736 0.9352037408149616  0.15463917525773196 0.8416833667334662  L 0.9278350515463917 0.14028056112224463  C 1.0309278350515465 0.04676018704074769  1.1494845360824744 0  1.2835051546391751 0  C 1.4175257731958761 0  1.5360824742268042 0.04676018704074769  1.6391752577319587 0.14028056112224463  L 8.845360824742267 6.677354709418838  Z " fill-rule="nonzero" fill="#aaaaaa" stroke="none" transform="matrix(1 0 0 1 1286 790 )" />
  </g>
</svg>