<?xml version="1.0" encoding="utf-8"?>
<svg version="1.1" xmlns:xlink="http://www.w3.org/1999/xlink" width="16px" height="12px" xmlns="http://www.w3.org/2000/svg">
  <g transform="matrix(1 0 0 1 -1886 -20 )">
    <path d="M 15.703125 0.3958333333333339  C 15.901041666666668 0.6597222222222197  16 0.9722222222222192  16 1.333333333333334  C 16 1.6944444444444433  15.901041666666668 2.006944444444443  15.703125 2.270833333333334  L 8.703125 11.604166666666666  C 8.505208333333334 11.868055555555552  8.270833333333334 12  8 12  C 7.729166666666668 12  7.494791666666668 11.868055555555552  7.296875 11.604166666666666  L 0.296875 2.270833333333334  C 0.09895833333333333 2.006944444444443  0 1.6944444444444433  0 1.333333333333334  C 0 0.9722222222222192  0.09895833333333333 0.6597222222222197  0.296875 0.3958333333333339  C 0.4947916666666667 0.13194444444444287  0.7291666666666667 0  1 0  L 15 0  C 15.270833333333334 0  15.505208333333334 0.13194444444444287  15.703125 0.3958333333333339  Z " fill-rule="nonzero" fill="#f2f2f2" stroke="none" transform="matrix(1 0 0 1 1886 20 )" />
  </g>
</svg>