<?xml version="1.0" encoding="utf-8"?>
<svg version="1.1" xmlns:xlink="http://www.w3.org/1999/xlink" width="24px" height="24px" xmlns="http://www.w3.org/2000/svg">
  <g transform="matrix(1 0 0 1 -826 -98 )">
    <path d="M 1.8461538461538463 18.428571428571427  L 1.8461538461538463 22.285714285714285  L 6 22.285714285714285  L 6 18.428571428571427  L 1.8461538461538463 18.428571428571427  Z M 6.9230769230769225 18.428571428571427  L 6.9230769230769225 22.285714285714285  L 11.538461538461538 22.285714285714285  L 11.538461538461538 18.428571428571427  L 6.9230769230769225 18.428571428571427  Z M 1.8461538461538463 13.285714285714286  L 1.8461538461538463 17.571428571428573  L 6 17.571428571428573  L 6 13.285714285714286  L 1.8461538461538463 13.285714285714286  Z M 6.9230769230769225 13.285714285714286  L 6.9230769230769225 17.571428571428573  L 11.538461538461538 17.571428571428573  L 11.538461538461538 13.285714285714286  L 6.9230769230769225 13.285714285714286  Z M 1.8461538461538463 8.57142857142857  L 1.8461538461538463 12.428571428571427  L 6 12.428571428571427  L 6 8.57142857142857  L 1.8461538461538463 8.57142857142857  Z M 12.461538461538463 18.428571428571427  L 12.461538461538463 22.285714285714285  L 17.076923076923077 22.285714285714285  L 17.076923076923077 18.428571428571427  L 12.461538461538463 18.428571428571427  Z M 6.9230769230769225 8.57142857142857  L 6.9230769230769225 12.428571428571427  L 11.538461538461538 12.428571428571427  L 11.538461538461538 8.57142857142857  L 6.9230769230769225 8.57142857142857  Z M 18 18.428571428571427  L 18 22.285714285714285  L 22.153846153846153 22.285714285714285  L 22.153846153846153 18.428571428571427  L 18 18.428571428571427  Z M 12.461538461538463 13.285714285714286  L 12.461538461538463 17.571428571428573  L 17.076923076923077 17.571428571428573  L 17.076923076923077 13.285714285714286  L 12.461538461538463 13.285714285714286  Z M 7.247596153846153 6.3013392857142865  C 7.338942307692308 6.216517857142856  7.384615384615385 6.116071428571426  7.384615384615385 6  L 7.384615384615385 2.1428571428571432  C 7.384615384615385 2.0267857142857144  7.338942307692308 1.9263392857142847  7.247596153846153 1.8415178571428568  C 7.156250000000001 1.7566964285714262  7.048076923076923 1.7142857142857135  6.9230769230769225 1.7142857142857135  L 6 1.7142857142857135  C 5.875 1.7142857142857135  5.766826923076923 1.7566964285714262  5.675480769230769 1.8415178571428568  C 5.584134615384615 1.9263392857142847  5.538461538461538 2.0267857142857144  5.538461538461538 2.1428571428571432  L 5.538461538461538 6  C 5.538461538461538 6.116071428571426  5.584134615384615 6.216517857142856  5.675480769230769 6.3013392857142865  C 5.766826923076923 6.386160714285714  5.875 6.42857142857143  6 6.42857142857143  L 6.9230769230769225 6.42857142857143  C 7.048076923076923 6.42857142857143  7.156250000000001 6.386160714285714  7.247596153846153 6.3013392857142865  Z M 18 13.285714285714286  L 18 17.571428571428573  L 22.153846153846153 17.571428571428573  L 22.153846153846153 13.285714285714286  L 18 13.285714285714286  Z M 12.461538461538463 8.57142857142857  L 12.461538461538463 12.428571428571427  L 17.076923076923077 12.428571428571427  L 17.076923076923077 8.57142857142857  L 12.461538461538463 8.57142857142857  Z M 18 8.57142857142857  L 18 12.428571428571427  L 22.153846153846153 12.428571428571427  L 22.153846153846153 8.57142857142857  L 18 8.57142857142857  Z M 18.32451923076923 6.3013392857142865  C 18.415865384615387 6.216517857142856  18.461538461538463 6.116071428571426  18.461538461538463 6  L 18.461538461538463 2.1428571428571432  C 18.461538461538463 2.0267857142857144  18.415865384615387 1.9263392857142847  18.32451923076923 1.8415178571428568  C 18.23317307692308 1.7566964285714262  18.125 1.7142857142857135  18 1.7142857142857135  L 17.076923076923077 1.7142857142857135  C 16.95192307692308 1.7142857142857135  16.84375 1.7566964285714262  16.752403846153847 1.8415178571428568  C 16.661057692307693 1.9263392857142847  16.615384615384613 2.0267857142857144  16.615384615384613 2.1428571428571432  L 16.615384615384613 6  C 16.615384615384613 6.116071428571426  16.661057692307693 6.216517857142856  16.752403846153847 6.3013392857142865  C 16.84375 6.386160714285714  16.95192307692308 6.42857142857143  17.076923076923077 6.42857142857143  L 18 6.42857142857143  C 18.125 6.42857142857143  18.23317307692308 6.386160714285714  18.32451923076923 6.3013392857142865  Z M 23.451923076923077 3.9375  C 23.817307692307693 4.276785714285714  24 4.678571428571428  24 5.142857142857143  L 24 22.285714285714285  C 24 22.75  23.817307692307693 23.151785714285715  23.451923076923077 23.49107142857143  C 23.086538461538463 23.830357142857142  22.653846153846157 24  22.153846153846153 24  L 1.8461538461538463 24  C 1.3461538461538463 24  0.9134615384615385 23.830357142857142  0.548076923076923 23.49107142857143  C 0.18269230769230768 23.151785714285715  0 22.75  0 22.285714285714285  L 0 5.142857142857143  C 0 4.678571428571428  0.18269230769230768 4.276785714285714  0.548076923076923 3.9375  C 0.9134615384615385 3.598214285714283  1.3461538461538463 3.4285714285714297  1.8461538461538463 3.4285714285714297  L 3.6923076923076925 3.4285714285714297  L 3.6923076923076925 2.1428571428571432  C 3.6923076923076925 1.5535714285714297  3.918269230769231 1.0491071428571415  4.3701923076923075 0.6294642857142865  C 4.822115384615385 0.20982142857142883  5.365384615384616 0  6 0  L 6.9230769230769225 0  C 7.5576923076923075 0  8.10096153846154 0.20982142857142883  8.552884615384615 0.6294642857142865  C 9.004807692307693 1.0491071428571415  9.230769230769232 1.5535714285714297  9.230769230769232 2.1428571428571432  L 9.230769230769232 3.4285714285714297  L 14.76923076923077 3.4285714285714297  L 14.76923076923077 2.1428571428571432  C 14.76923076923077 1.5535714285714297  14.995192307692308 1.0491071428571415  15.447115384615385 0.6294642857142865  C 15.899038461538463 0.20982142857142883  16.442307692307693 0  17.076923076923077 0  L 18 0  C 18.634615384615387 0  19.177884615384617 0.20982142857142883  19.629807692307693 0.6294642857142865  C 20.081730769230774 1.0491071428571415  20.307692307692307 1.5535714285714297  20.307692307692307 2.1428571428571432  L 20.307692307692307 3.4285714285714297  L 22.153846153846153 3.4285714285714297  C 22.653846153846157 3.4285714285714297  23.086538461538463 3.598214285714283  23.451923076923077 3.9375  Z " fill-rule="nonzero" fill="#606266" stroke="none" transform="matrix(1 0 0 1 826 98 )" />
  </g>
</svg>