<?xml version="1.0" encoding="utf-8"?>
<svg version="1.1" xmlns:xlink="http://www.w3.org/1999/xlink" width="19px" height="10px" xmlns="http://www.w3.org/2000/svg">
  <g transform="matrix(1 0 0 1 -136 -20 )">
    <path d="M 18.809619238476955 1.030927835051546  C 18.936539746158985 1.145475372279493  19 1.2772050400916368  19 1.426116838487973  C 19 1.5750286368843058  18.936539746158985 1.7067583046964474  18.809619238476955 1.8213058419243988  L 9.937875751503006 9.828178694158074  C 9.810955243820976 9.942726231386022  9.664996659986642 10  9.5 10  C 9.335003340013362 10  9.189044756179026 9.942726231386022  9.062124248496994 9.828178694158074  L 0.1903807615230461 1.8213058419243988  C 0.06346025384101554 1.7067583046964474  0 1.5750286368843058  0 1.426116838487973  C 0 1.2772050400916368  0.06346025384101554 1.145475372279493  0.1903807615230461 1.030927835051546  L 1.1422845691382766 0.1718213058419249  C 1.2692050768203076 0.057273768613973486  1.4151636606546427 0  1.5801603206412826 0  C 1.7451569806279228 0  1.891115564462258 0.057273768613973486  2.0180360721442883 0.1718213058419249  L 9.5 6.9243986254295535  L 16.981963927855713 0.1718213058419249  C 17.108884435537743 0.057273768613973486  17.25484301937208 0  17.419839679358716 0  C 17.584836339345358 0  17.730794923179694 0.057273768613973486  17.857715430861724 0.1718213058419249  L 18.809619238476955 1.030927835051546  Z " fill-rule="nonzero" fill="#ffffff" stroke="none" transform="matrix(1 0 0 1 136 20 )" />
  </g>
</svg>