<?xml version="1.0" encoding="utf-8"?>
<svg version="1.1" xmlns:xlink="http://www.w3.org/1999/xlink" width="20px" height="20px" xmlns="http://www.w3.org/2000/svg">
  <g transform="matrix(1 0 0 1 -1470 -18 )">
    <path d="M 16.618374208860757 0.11075949367091198  C 16.566455696202524 0.11075949367091198  16.517009493670912 0.13053797468364792  16.477452531645554 0.16762262658221516  L 6.197587025316466 10.427709651898795  C 6.162974683544292 10.464794303797362  6.140723892405049 10.514240506329088  6.140723892405049 10.566159018987264  L 6.09375 13.505735759493746  C 6.091277689873436 13.725771360759381  6.269284018987321 13.90625  6.489319620253184 13.90625  L 9.416534810126564 13.834553006329088  C 9.465981012658233 13.832080696202638  9.515427215189902 13.812302215189902  9.55003955696202 13.777689873417785  L 19.832377373417728 3.5176028481012054  C 19.909018987341767 3.4409612341771663  19.909018987341767 3.3148734177216284  19.832377373417728 3.238231803797362  L 16.75929588607596 0.16762262658221516  C 16.71973892405066 0.12806566455697066  16.67029272151899 0.11075949367091198  16.618374208860757 0.11075949367091198  Z M 19.098101265822777 19.87341772151899  C 19.535700158227826 19.889240506329088  19.889240506329088 19.535700158227883  19.87341772151899 19.098101265822834  L 19.87341772151899 10.197784810126677  C 19.889240506329088 10.08900316455697  19.800237341772174 10  19.691455696202524 10  L 18.306962025316466 10  C 18.198180379746816 10  18.109177215189902 10.08900316455697  18.101265822784796 10.197784810126677  L 18.101265822784796 18  L 2 18  L 2 1.8987341772151467  L 9.802215189873436 1.8987341772151467  C 9.91099683544303 1.8908227848100978  10 1.8018196202531271  10 1.693037974683648  L 10 0.30854430379736186  C 10 0.19976265822788264  9.91099683544303 0.11075949367091198  9.802215189873436 0.12658227848100978  L 0.9018987341772231 0.12658227848100978  C 0.4642998417721742 0.11075949367091198  0.11075949367091198 0.46429984177211736  0.12658227848100978 0.9018987341771663  L 0.12658227848100978 19.098101265822834  C 0.11075949367091198 19.535700158227883  0.4642998417721742 19.889240506329088  0.9018987341772231 19.87341772151899  L 19.098101265822777 19.87341772151899  Z M 17.73585838607596 3.3766811708860587  L 8.823180379746816 12.269580696202638  L 7.693334651898738 12.296776107594951  L 7.7106408227847965 11.149624208860814  L 16.618374208860757 2.261669303797362  L 17.73585838607596 3.3766811708860587  Z " fill-rule="nonzero" fill="#ffffff" stroke="none" transform="matrix(1 0 0 1 1470 18 )" />
  </g>
</svg>