<?xml version="1.0" encoding="utf-8"?>
<svg version="1.1" xmlns:xlink="http://www.w3.org/1999/xlink" width="20px" height="21px" xmlns="http://www.w3.org/2000/svg">
  <g transform="matrix(1 0 0 1 -1552 -18 )">
    <path d="M 6.054651162790606 3.8186046511627865  L 6.054651162790606 1.9500000000000455  C 6.054651162790606 1.744186046511686  5.930232558139551 1.9500000000000455  6.054651162790606 1.9500000000000455  L 13.944186046511732 1.9500000000000455  C 14.06976744186045 1.9500000000000455  13.944186046511732 1.744186046511686  13.944186046511732 1.9500000000000455  L 13.944186046511732 3.8186046511627865  L 15.813953488372135 3.8186046511627865  L 15.813953488372135 1.7418604651163605  C 15.81331215575483 0.8244344921799893  15.06975155433156 0.08087389075694773  14.152325581395417 0.0802325581396417  L 5.846511627906921 0.0802325581396417  C 4.929539785690167 0.0815148139113262  4.186686854778827 0.8248879499560644  4.186046511627865 1.7418604651163605  L 4.186046511627865 3.8186046511627865  L 6.054651162790606 3.8186046511627865  Z M 19.137209302326028 3.818603836883085  C 19.13682170528432 3.818603836883085  19.13643410828945 3.8186041083097275  19.13604651162791 4  L 0.8639534883720899 4  C 0.8635658917100955 3.8186041083097275  0.8631782947161355 3.818603836883085  0.8627906976739723 3.818603836883085  C 0.4042659170006573 3.818603836883085  0.032558139534557995 4.190311614349184  0.032558139534557995 4.648836395022727  L 0.03255813953478537 5.4790697674418425  C 0.03255813953478537 5.594186046511595  0.12558139534894508 5.6872093023255275  0.24069767441869772 5.6872093023255275  L 1.8081395348838214 5.6872093023255275  L 2.4488372093023827 19.261627906976855  C 2.4910144990205936 20.14759684010096  3.221167641821239 20.84449143049642  4.108139534883776 20.845348837209258  L 15.891860465116224 20.845348837209258  C 16.779069767441797 20.845348837209258  17.50813953488364 20.148837209302428  17.549999999999955 19.261627906976855  L 18.190697674418516 5.6872093023255275  L 19.75813953488364 5.6872093023255275  C 19.873281437802007 5.687211079220333  19.96680218324036 5.5942098934790465  19.967441860465215 5.4790697674418425  L 19.967441860465215 4.648837209302428  C 19.967441860465442 4.190311614349184  19.595734082999343 3.818603836883085  19.137209302326028 3.818603836883085  Z M 16.31976744186045 6  L 15.691860465116179 19  L 4.308139534883821 19  L 3.6802325581395507 6  L 16.31976744186045 6  Z " fill-rule="nonzero" fill="#000000" stroke="none" transform="matrix(1 0 0 1 1552 18 )" />
  </g>
</svg>