<?xml version="1.0" encoding="utf-8"?>
<svg version="1.1" xmlns:xlink="http://www.w3.org/1999/xlink" width="20px" height="20px" xmlns="http://www.w3.org/2000/svg">
  <g transform="matrix(1 0 0 1 -1632 -18 )">
    <path d="M 0 10.9677419354839  L 0 20  L 9.0322580645161 20  L 9.0322580645161 10.9677419354839  L 0 10.9677419354839  Z M 10.9677419354839 0  L 10.9677419354839 9.0322580645161  L 20 9.0322580645161  L 20 0  L 10.9677419354839 0  Z M 0 0  L 0 9.0322580645161  L 9.0322580645161 9.0322580645161  L 9.0322580645161 0  L 0 0  Z M 20 20  L 20 16.021505376344066  L 17.741935483870975 16.021505376344066  L 17.741935483870975 17.741935483871202  L 16.021505376344066 17.741935483871202  L 16.021505376344066 20  L 20 20  Z M 20 10.322580645160997  L 20 12.473118279569462  L 17.741935483870975 12.473118279569462  L 17.741935483870975 10.322580645160997  L 20 10.322580645160997  Z M 18.494623655913983 7.63440860215087  L 12.365591397849471 7.63440860215087  L 12.365591397849471 1.5053763440864714  L 18.494623655913983 1.5053763440864714  L 18.494623655913983 7.63440860215087  Z M 13.11827956989248 14.838709677419502  L 14.301075268817158 14.838709677419502  L 14.301075268817158 16.559139784946638  L 16.559139784946183 16.559139784946638  L 16.559139784946183 10.322580645160997  L 13.11827956989248 10.322580645160997  L 13.11827956989248 12.473118279569462  L 10.9677419354839 12.473118279569462  L 10.9677419354839 17.0967741935483  L 13.11827956989248 17.0967741935483  L 13.11827956989248 14.838709677419502  Z M 1.5053763440860166 7.526881720430538  L 1.5053763440860166 1.5053763440864714  L 7.526881720430083 1.5053763440864714  L 7.526881720430083 7.526881720430538  L 1.5053763440860166 7.526881720430538  Z M 1.5053763440860166 18.49462365591353  L 1.5053763440860166 12.36559139784913  L 7.526881720430083 12.36559139784913  L 7.526881720430083 18.49462365591353  L 1.5053763440860166 18.49462365591353  Z M 13.225806451612925 17.63440860215087  L 13.225806451612925 20  L 10.9677419354839 20  L 10.9677419354839 17.63440860215087  L 13.225806451612925 17.63440860215087  Z M 14.408602150537604 5.6989247311830695  L 16.559139784946183 5.6989247311830695  L 16.559139784946183 3.4408602150533625  L 14.408602150537604 3.4408602150533625  L 14.408602150537604 5.6989247311830695  Z M 3.4408602150538172 14.30107526881693  L 3.4408602150538172 16.559139784946638  L 5.698924731182842 16.559139784946638  L 5.698924731182842 14.30107526881693  L 3.4408602150538172 14.30107526881693  Z M 5.591397849462396 3.4408602150533625  L 3.4408602150538172 3.4408602150533625  L 3.4408602150538172 5.6989247311830695  L 5.591397849462396 5.6989247311830695  L 5.591397849462396 3.4408602150533625  Z " fill-rule="nonzero" fill="#000000" stroke="none" transform="matrix(1 0 0 1 1632 18 )" />
  </g>
</svg>