<?xml version="1.0" encoding="utf-8"?>
<svg version="1.1" xmlns:xlink="http://www.w3.org/1999/xlink" width="24px" height="24px" xmlns="http://www.w3.org/2000/svg">
  <g transform="matrix(1 0 0 1 -353 -150 )">
    <path d="M 365 150  C 371.72 150  377 155.28  377 162  C 377 168.72  371.72 174  365 174  C 358.28 174  353 168.72  353 162  C 353 155.28  358.28 150  365 150  Z " fill-rule="nonzero" fill="#ffffff" stroke="none" />
    <path d="M 365 150.5  C 371.44 150.5  376.5 155.56  376.5 162  C 376.5 168.44  371.44 173.5  365 173.5  C 358.56 173.5  353.5 168.44  353.5 162  C 353.5 155.56  358.56 150.5  365 150.5  Z " stroke-width="1" stroke="#d7d7d7" fill="none" />
  </g>
</svg>