<?xml version="1.0" encoding="utf-8"?>
<svg version="1.1" xmlns:xlink="http://www.w3.org/1999/xlink" width="20px" height="14px" xmlns="http://www.w3.org/2000/svg">
  <g transform="matrix(1 0 0 1 -1066 -16 )">
    <path d="M 19.638709677419357 1.9326599326599332  C 19.87956989247312 2.1526374859708186  20.000000000000004 2.419753086419753  20 2.734006734006734  C 20.000000000000004 3.0482603815937135  19.87956989247312 3.3153759820426476  19.638709677419357 3.5353535353535346  L 10.296774193548387 12.067340067340067  L 8.541935483870969 13.67003367003367  C 8.301075268817206 13.890011223344557  8.008602150537635 14  7.6645161290322585 14  C 7.320430107526882 14  7.027956989247313 13.890011223344557  6.787096774193548 13.67003367003367  L 5.032258064516128 12.067340067340067  L 0.3612903225806452 7.801346801346803  C 0.12043010752688184 7.581369248035914  0 7.3142536475869795  0 7  C 0 6.685746352413019  0.12043010752688184 6.418630751964085  0.3612903225806452 6.198653198653199  L 2.1161290322580646 4.595959595959596  C 2.3569892473118284 4.375982042648709  2.6494623655913987 4.265993265993265  2.9935483870967743 4.2659932659932664  C 3.3376344086021517 4.265993265993265  3.6301075268817207 4.375982042648709  3.870967741935484 4.595959595959596  L 7.6645161290322585 8.072390572390571  L 16.129032258064516 0.32996632996633  C 16.36989247311828 0.10998877665544282  16.66236559139785 0  17.006451612903227 0  C 17.350537634408603 0  17.643010752688173 0.10998877665544282  17.883870967741935 0.32996632996633  L 19.638709677419357 1.9326599326599332  Z " fill-rule="nonzero" fill="#ffffff" stroke="none" transform="matrix(1 0 0 1 1066 16 )" />
  </g>
</svg>