<?xml version="1.0" encoding="utf-8"?>
<svg version="1.1" xmlns:xlink="http://www.w3.org/1999/xlink" width="18px" height="18px" xmlns="http://www.w3.org/2000/svg">
  <g transform="matrix(1 0 0 1 -1749 -283 )">
    <path d="M 1758 283  C 1763.04 283  1767 286.96  1767 292  C 1767 297.04  1763.04 301  1758 301  C 1752.96 301  1749 297.04  1749 292  C 1749 286.96  1752.96 283  1758 283  Z " fill-rule="nonzero" fill="#ffffff" stroke="none" />
    <path d="M 1758 283.5  C 1762.76 283.5  1766.5 287.24  1766.5 292  C 1766.5 296.76  1762.76 300.5  1758 300.5  C 1753.24 300.5  1749.5 296.76  1749.5 292  C 1749.5 287.24  1753.24 283.5  1758 283.5  Z " stroke-width="1" stroke="#337cec" fill="none" />
  </g>
</svg>