<?xml version="1.0" encoding="utf-8"?>
<svg version="1.1" xmlns:xlink="http://www.w3.org/1999/xlink" width="8px" height="8px" xmlns="http://www.w3.org/2000/svg">
  <g transform="matrix(1 0 0 1 -1755 -288 )">
    <path d="M 7.86254295532646 3.8156312625250504  C 7.954180985108821 3.869071476285905  8 3.930527722110888  8 4  C 8 4.069472277889111  7.954180985108821 4.130928523714094  7.86254295532646 4.18436873747495  L 1.4570446735395188 7.919839679358717  C 1.3654066437571593 7.973279893119573  1.2600229095074456 8  1.140893470790378 8  C 1.0217640320733106 8  0.9163802978235969 7.973279893119573  0.8247422680412371 7.919839679358717  L 0.13745704467353953 7.519038076152305  C 0.04581901489117987 7.465597862391449  0 7.404141616566466  0 7.3346693386773545  C 0 7.265197060788243  0.04581901489117987 7.20374081496326  0.13745704467353953 7.150300601202405  L 5.5395189003436425 4  L 0.13745704467353953 0.8496993987975952  C 0.04581901489117987 0.7962591850367398  0 0.7348029392117565  0 0.6653306613226455  C 0 0.5958583834335327  0.04581901489117987 0.5344021376085495  0.13745704467353953 0.480961923847695  L 0.8247422680412371 0.08016032064128265  C 0.9163802978235969 0.026720106880427252  1.0217640320733106 0  1.140893470790378 0  C 1.2600229095074456 0  1.3654066437571593 0.026720106880427252  1.4570446735395188 0.08016032064128265  L 7.86254295532646 3.8156312625250504  Z " fill-rule="nonzero" fill="#337cec" stroke="none" transform="matrix(1 0 0 1 1755 288 )" />
  </g>
</svg>