<svg t="1718620303017" class="icon" viewBox="0 0 1024 1024" version="1.1" xmlns="http://www.w3.org/2000/svg" p-id="4921" width="48" height="48"><path d="M512 10.138614C233.188119 10.138614 5.069307 238.257426 5.069307 517.069307s228.118812 506.930693 506.930693 506.930693 506.930693-228.118812 506.930693-506.930693-223.049505-506.930693-506.930693-506.930693zM344.712871 816.158416H283.881188V456.237624c-20.277228 25.346535-45.623762 50.693069-70.970297 76.039604-5.069307-15.207921-25.346535-50.693069-35.485148-65.90099C248.39604 400.475248 314.29703 304.158416 354.851485 202.772277l60.831683 20.277228c-20.277228 50.693069-45.623762 96.316832-70.970297 141.940594v451.168317z m430.891089-81.108911c-60.831683-55.762376-116.594059-147.009901-157.148514-248.39604v329.504951h-60.831684V506.930693c-45.623762 96.316832-101.386139 177.425743-162.217821 233.188119-10.138614-15.207921-30.415842-35.485149-45.623763-50.693069 70.970297-55.762376 136.871287-157.148515 177.425743-263.603961h-152.079208V364.990099h182.495049V207.841584h60.831684v157.148515h187.564356v60.831683h-152.079208c40.554455 101.386139 106.455446 202.772277 172.356436 258.534654-20.277228 10.138614-40.554455 35.485149-50.69307 50.693069z" fill="#399CFF" p-id="4922"></path></svg>